<svg width="511" height="1007" viewBox="0 0 511 1007" fill="none" xmlns="http://www.w3.org/2000/svg">
<path fill-rule="evenodd" clip-rule="evenodd" d="M133 0H0V173H105H133H252V330H0V341H252V498H0V509H252V666H0V677H252V834H0V839V845V1007H131V845H379V1007H511V845V839V834H261V677H511V666H261V509H511V498H261V341H511V330H261V173H379H407H511V0H379V162H133V0Z" fill="#212936"/>
<path fill-rule="evenodd" clip-rule="evenodd" d="M131 0C129.343 0 128 1.34314 128 3V164C128 165.657 129.343 167 131 167H380C381.657 167 383 165.657 383 164V3C383 1.34315 381.657 0 380 0H131ZM376 9H135V158H376V9Z" fill="#3D3D3D"/>
<path fill-rule="evenodd" clip-rule="evenodd" d="M131 840C129.343 840 128 841.343 128 843V1004C128 1005.66 129.343 1007 131 1007H380C381.657 1007 383 1005.66 383 1004V843C383 841.343 381.657 840 380 840H131ZM376 849H135V998H376V849Z" fill="#3D3D3D"/>
<path fill-rule="evenodd" clip-rule="evenodd" d="M3 168C1.34315 168 0 169.343 0 171V332C0 333.657 1.34315 335 3 335H252C253.657 335 255 333.657 255 332V171C255 169.343 253.657 168 252 168H3ZM248 177H7V326H248V177Z" fill="#3D3D3D"/>
<path fill-rule="evenodd" clip-rule="evenodd" d="M3 336C1.34315 336 0 337.343 0 339V500C0 501.657 1.34315 503 3 503H252C253.657 503 255 501.657 255 500V339C255 337.343 253.657 336 252 336H3ZM248 345H7V494H248V345Z" fill="#3D3D3D"/>
<path fill-rule="evenodd" clip-rule="evenodd" d="M3 504C1.34315 504 0 505.343 0 507V668C0 669.657 1.34315 671 3 671H252C253.657 671 255 669.657 255 668V507C255 505.343 253.657 504 252 504H3ZM248 513H7V662H248V513Z" fill="#3D3D3D"/>
<path fill-rule="evenodd" clip-rule="evenodd" d="M3 672C1.34315 672 0 673.343 0 675V836C0 837.657 1.34315 839 3 839H252C253.657 839 255 837.657 255 836V675C255 673.343 253.657 672 252 672H3ZM248 681H7V830H248V681Z" fill="#3D3D3D"/>
<path fill-rule="evenodd" clip-rule="evenodd" d="M259 168C257.343 168 256 169.343 256 171V332C256 333.657 257.343 335 259 335H508C509.657 335 511 333.657 511 332V171C511 169.343 509.657 168 508 168H259ZM504 177H263V326H504V177Z" fill="#3D3D3D"/>
<path fill-rule="evenodd" clip-rule="evenodd" d="M259 336C257.343 336 256 337.343 256 339V500C256 501.657 257.343 503 259 503H508C509.657 503 511 501.657 511 500V339C511 337.343 509.657 336 508 336H259ZM504 345H263V494H504V345Z" fill="#3D3D3D"/>
<path fill-rule="evenodd" clip-rule="evenodd" d="M259 504C257.343 504 256 505.343 256 507V668C256 669.657 257.343 671 259 671H508C509.657 671 511 669.657 511 668V507C511 505.343 509.657 504 508 504H259ZM504 513H263V662H504V513Z" fill="#3D3D3D"/>
<path fill-rule="evenodd" clip-rule="evenodd" d="M259 672C257.343 672 256 673.343 256 675V836C256 837.657 257.343 839 259 839H508C509.657 839 511 837.657 511 836V675C511 673.343 509.657 672 508 672H259ZM504 681H263V830H504V681Z" fill="#3D3D3D"/>
</svg>
